<?xml version="1.0" encoding="UTF-8" standalone="no"?>
<!-- Created with Inkscape (http://www.inkscape.org/) -->
<svg
   xmlns:dc="http://purl.org/dc/elements/1.1/"
   xmlns:cc="http://creativecommons.org/ns#"
   xmlns:rdf="http://www.w3.org/1999/02/22-rdf-syntax-ns#"
   xmlns:svg="http://www.w3.org/2000/svg"
   xmlns="http://www.w3.org/2000/svg"
   xmlns:xlink="http://www.w3.org/1999/xlink"
   xmlns:sodipodi="http://sodipodi.sourceforge.net/DTD/sodipodi-0.dtd"
   xmlns:inkscape="http://www.inkscape.org/namespaces/inkscape"
   width="64px"
   height="64px"
   id="svg2383"
   sodipodi:version="0.32"
   inkscape:version="0.46"
   inkscape:export-filename="/home/dan/Projects/palm/HelloWorld/icon.png"
   inkscape:export-xdpi="96"
   inkscape:export-ydpi="96"
   sodipodi:docname="icon.svg"
   inkscape:output_extension="org.inkscape.output.svg.inkscape">
  <defs
     id="defs2385">
    <linearGradient
       id="linearGradient3983">
      <stop
         style="stop-color:#ffffff;stop-opacity:1;"
         offset="0"
         id="stop3985" />
      <stop
         style="stop-color:#ffffff;stop-opacity:0;"
         offset="1"
         id="stop3987" />
    </linearGradient>
    <linearGradient
       inkscape:collect="always"
       id="linearGradient3967">
      <stop
         style="stop-color:#ffffff;stop-opacity:1;"
         offset="0"
         id="stop3969" />
      <stop
         style="stop-color:#ffffff;stop-opacity:0;"
         offset="1"
         id="stop3971" />
    </linearGradient>
    <filter
       inkscape:collect="always"
       id="filter3268"
       x="-0.12811484"
       width="1.2562297"
       y="-0.19940117"
       height="1.3988023">
      <feGaussianBlur
         inkscape:collect="always"
         stdDeviation="6.4065066"
         id="feGaussianBlur3270" />
    </filter>
    <linearGradient
       id="linearGradient4626">
      <stop
         id="stop4628"
         offset="0"
         style="stop-color:#ffffff;stop-opacity:1;" />
      <stop
         id="stop4630"
         offset="1"
         style="stop-color:#ffffff;stop-opacity:0;" />
    </linearGradient>
    <inkscape:perspective
       sodipodi:type="inkscape:persp3d"
       inkscape:vp_x="0 : 32 : 1"
       inkscape:vp_y="0 : 1000 : 0"
       inkscape:vp_z="64 : 32 : 1"
       inkscape:persp3d-origin="32 : 21.333333 : 1"
       id="perspective2391" />
    <radialGradient
       inkscape:collect="always"
       xlink:href="#linearGradient4626"
       id="radialGradient3340"
       gradientUnits="userSpaceOnUse"
       gradientTransform="translate(-62.711865,6.6776968e-7)"
       cx="902.5"
       cy="232.5"
       fx="902.5"
       fy="232.5"
       r="18.5" />
    <radialGradient
       inkscape:collect="always"
       xlink:href="#linearGradient4626"
       id="radialGradient3437"
       gradientUnits="userSpaceOnUse"
       gradientTransform="translate(-62.711865,6.6776966e-7)"
       cx="902.5"
       cy="232.5"
       fx="902.5"
       fy="232.5"
       r="18.5" />
    <radialGradient
       inkscape:collect="always"
       xlink:href="#linearGradient3967"
       id="radialGradient3973"
       cx="22.277281"
       cy="19.625631"
       fx="22.277281"
       fy="19.625631"
       r="31"
       gradientUnits="userSpaceOnUse" />
    <linearGradient
       inkscape:collect="always"
       xlink:href="#linearGradient3983"
       id="linearGradient3989"
       x1="32"
       y1="6.59375"
       x2="32"
       y2="39.516678"
       gradientUnits="userSpaceOnUse" />
    <filter
       inkscape:collect="always"
       id="filter3999">
      <feGaussianBlur
         inkscape:collect="always"
         stdDeviation="0.84140625"
         id="feGaussianBlur4001" />
    </filter>
  </defs>
  <sodipodi:namedview
     id="base"
     pagecolor="#ffffff"
     bordercolor="#666666"
     borderopacity="1.0"
     inkscape:pageopacity="0.0"
     inkscape:pageshadow="2"
     inkscape:zoom="5.6568542"
     inkscape:cx="6.1666625"
     inkscape:cy="38.241225"
     inkscape:current-layer="layer1"
     showgrid="true"
     inkscape:document-units="px"
     inkscape:grid-bbox="true"
     borderlayer="true"
     inkscape:showpageshadow="false"
     inkscape:window-width="1680"
     inkscape:window-height="997"
     inkscape:window-x="0"
     inkscape:window-y="28" />
  <metadata
     id="metadata2388">
    <rdf:RDF>
      <cc:Work
         rdf:about="">
        <dc:format>image/svg+xml</dc:format>
        <dc:type
           rdf:resource="http://purl.org/dc/dcmitype/StillImage" />
      </cc:Work>
    </rdf:RDF>
  </metadata>
  <g
     id="layer1"
     inkscape:label="Layer 1"
     inkscape:groupmode="layer">
    <path
       transform="matrix(0.5290882,0,0,0.5258734,-25.401529,-155.29833)"
       id="path3328"
       d="M 106.375,43.09375 C 82.69297,43.617639 57.15072,57.239859 50.28125,81.25 C 44.48797,98.344472 57.4216,118.134 75.25,119.84375 C 84.21682,121.36559 92.54529,117.14969 99.875,112.65625 C 109.27885,109.14677 119.1867,112.4768 127.21875,117.625 C 143.59172,125.29514 164.73735,114.47503 168.21875,96.8125 C 172.22061,77.366055 157.8629,58.846082 141.125,50.59375 C 130.48246,45.110662 118.3536,42.695988 106.375,43.09375 z"
       style="opacity:0.31666667;fill:#ffffff;fill-opacity:1;stroke:none;stroke-width:1.70014453;stroke-linecap:butt;stroke-linejoin:round;stroke-miterlimit:4;stroke-dasharray:none;stroke-dashoffset:0;stroke-opacity:1;display:inline;filter:url(#filter3268)" />
    <path
       transform="matrix(0.8436812,0,0,0.7817037,-738.41237,-300.66142)"
       d="M 921,232.5 A 18.5,18.5 0 1 1 884,232.5 A 18.5,18.5 0 1 1 921,232.5 z"
       sodipodi:ry="18.5"
       sodipodi:rx="18.5"
       sodipodi:cy="232.5"
       sodipodi:cx="902.5"
       id="path3332"
       style="opacity:0.57635468;fill:url(#radialGradient3340);fill-opacity:1;stroke:none;stroke-width:5;stroke-linecap:butt;stroke-linejoin:round;stroke-miterlimit:4;stroke-dasharray:none;stroke-dashoffset:0;stroke-opacity:1;display:inline"
       sodipodi:type="arc" />
    <rect
       style="opacity:1;fill:#4d4d4d;fill-opacity:1;fill-rule:nonzero;stroke:none;stroke-width:4.59999943;stroke-linecap:round;stroke-linejoin:round;marker:none;marker-start:none;marker-mid:none;marker-end:none;stroke-miterlimit:4;stroke-dasharray:none;stroke-dashoffset:0;stroke-opacity:1;visibility:visible;display:inline;overflow:visible;enable-background:accumulate"
       id="rect3408"
       width="62"
       height="62"
       x="1"
       y="1"
       rx="6"
       ry="6" />
    <path
       transform="matrix(1.1444942,0,0,1.0627286,-1013.26,-224.30769)"
       d="M 921,232.5 A 18.5,18.5 0 1 1 884,232.5 A 18.5,18.5 0 1 1 921,232.5 z"
       sodipodi:ry="18.5"
       sodipodi:rx="18.5"
       sodipodi:cy="232.5"
       sodipodi:cx="902.5"
       id="path3418"
       style="opacity:0.57635468;fill:url(#radialGradient3437);fill-opacity:1;stroke:none;stroke-width:5;stroke-linecap:butt;stroke-linejoin:round;stroke-miterlimit:4;stroke-dasharray:none;stroke-dashoffset:0;stroke-opacity:1;display:inline"
       sodipodi:type="arc" />
    <path
       style="opacity:0.70935956;fill:#333333;fill-opacity:1;stroke:none;stroke-width:1.70014453;stroke-linecap:butt;stroke-linejoin:round;stroke-miterlimit:4;stroke-dasharray:none;stroke-dashoffset:0;stroke-opacity:1;display:inline"
       d="M 32.071676,7.133513 C 19.624565,7.133513 8.4909827,11.566263 1.0000011,18.539509 L 1.0000011,55.307904 C 3.9266051,57.011924 7.324354,58.000001 10.963006,58.000001 C 15.60612,58 19.849969,56.411183 23.219653,53.74932 C 25.732007,52.550409 28.676894,51.871936 31.820809,51.871936 C 35.779134,51.87194 39.418244,52.952955 42.285548,54.776567 C 42.308281,54.768917 42.334693,54.784752 42.357226,54.776567 C 45.469885,56.81292 49.208436,58.000001 53.216184,58.000001 C 56.783866,58.000001 60.112104,57.057077 62.999999,55.41417 L 62.999999,18.39782 C 55.514,11.500082 44.440006,7.1335228 32.071676,7.133513 z"
       id="path3420" />
    <path
       style="opacity:0.70935956;fill:#e6e6e6;fill-opacity:1;stroke:none;stroke-width:1.70014453;stroke-linecap:butt;stroke-linejoin:round;stroke-miterlimit:4;stroke-dasharray:none;stroke-dashoffset:0;stroke-opacity:1;display:inline"
       d="M 32.071676,5.9999987 C 19.624565,5.9999987 8.4909827,10.432747 1.0000011,17.405994 L 1.0000011,54.174388 C 3.9266051,55.878409 7.324354,56.866486 10.963006,56.866486 C 15.60612,56.866485 19.849969,55.277668 23.219653,52.615804 C 25.732007,51.416894 28.676894,50.73842 31.820809,50.73842 C 35.779134,50.738425 39.418244,51.819439 42.285548,53.643052 C 42.308281,53.635401 42.334693,53.651237 42.357226,53.643052 C 45.469885,55.679406 49.208436,56.866486 53.216184,56.866486 C 56.783866,56.866486 60.112104,55.923562 62.999999,54.280656 L 62.999999,17.264305 C 55.514,10.366567 44.440006,6.0000075 32.071676,5.9999987 z"
       id="path3449" />
    <path
       style="fill:#ffcc00;fill-opacity:1;stroke:none;stroke-width:1.70014453;stroke-linecap:butt;stroke-linejoin:round;stroke-miterlimit:4;stroke-dasharray:none;stroke-dashoffset:0;stroke-opacity:1;display:inline"
       d="M 32.071676,6.6021782 C 19.624565,6.6021782 8.4909827,11.034926 1.0000011,18.008173 L 1.0000011,54.776567 C 3.9266051,56.480589 7.324354,57.468666 10.963006,57.468666 C 15.60612,57.468666 19.849969,55.879847 23.219653,53.217985 C 25.732007,52.019069 28.676894,51.340601 31.820809,51.340601 C 35.779134,51.340605 39.418244,52.421619 42.285548,54.245233 C 42.308281,54.237582 42.334693,54.253417 42.357226,54.245233 C 45.469885,56.281586 49.208436,57.468666 53.216184,57.468666 C 56.783866,57.468666 60.112104,56.525742 62.999999,54.882836 L 62.999999,17.866484 C 55.514,10.968747 44.440006,6.602187 32.071676,6.6021782 z"
       id="path3416" />
    <text
       sodipodi:linespacing="125%"
       id="text3467"
       y="37.737236"
       x="5.0651665"
       style="font-size:18.15244102px;font-style:normal;font-variant:normal;font-weight:normal;font-stretch:normal;text-align:start;line-height:125%;writing-mode:lr-tb;text-anchor:start;opacity:0.90147783;fill:#000000;fill-opacity:1;stroke:none;stroke-width:1px;stroke-linecap:butt;stroke-linejoin:miter;stroke-opacity:1;display:inline;font-family:BorisBlackBloxx"
       xml:space="preserve"
       transform="scale(1.0051027,0.9949232)"><tspan
         y="37.737236"
         x="5.0651665"
         id="tspan3469"
         sodipodi:role="line">natto</tspan></text>
    <text
       sodipodi:linespacing="125%"
       id="text3463"
       y="37.069214"
       x="5.0651665"
       style="font-size:18.15244102px;font-style:normal;font-variant:normal;font-weight:normal;font-stretch:normal;text-align:start;line-height:125%;writing-mode:lr-tb;text-anchor:start;opacity:0.90147783;fill:#e6e6e6;fill-opacity:1;stroke:none;stroke-width:1px;stroke-linecap:butt;stroke-linejoin:miter;stroke-opacity:1;display:inline;font-family:BorisBlackBloxx"
       xml:space="preserve"
       transform="scale(1.0051027,0.9949232)"><tspan
         y="37.069214"
         x="5.0651665"
         id="tspan3465"
         sodipodi:role="line">natto</tspan></text>
    <text
       sodipodi:linespacing="125%"
       id="text3422"
       y="37.554546"
       x="5.0651665"
       style="font-size:18.15244102px;font-style:normal;font-variant:normal;font-weight:normal;font-stretch:normal;text-align:start;line-height:125%;writing-mode:lr-tb;text-anchor:start;opacity:0.90147783;fill:#333333;fill-opacity:1;stroke:none;stroke-width:1px;stroke-linecap:butt;stroke-linejoin:miter;stroke-opacity:1;display:inline;font-family:BorisBlackBloxx"
       xml:space="preserve"
       transform="scale(1.0051027,0.9949232)"><tspan
         y="37.554546"
         x="5.0651665"
         id="tspan3424"
         sodipodi:role="line">natto</tspan></text>
    <path
       style="fill:url(#linearGradient3989);fill-opacity:1;stroke:none;stroke-width:1.70014452999999999;stroke-linecap:butt;stroke-linejoin:round;stroke-miterlimit:4;stroke-dasharray:none;stroke-dashoffset:0;stroke-opacity:1;display:inline;opacity:0.54621849;filter:url(#filter3999)"
       d="M 32.0625 6.59375 C 19.615391 6.5937501 8.4909816 11.026753 1 18 L 1 26.21875 C 8.485999 33.116488 19.56917 37.468741 31.9375 37.46875 C 44.384611 37.46875 55.509018 33.035747 63 26.0625 L 63 17.875 C 55.514 10.977263 44.43083 6.5937588 32.0625 6.59375 z M 60.75 55.96875 C 59.976363 56.288925 59.194183 56.559713 58.375 56.78125 C 59.194503 56.560703 59.976123 56.288183 60.75 55.96875 z "
       id="path3980" />
    <rect
       style="opacity:0.7226891;fill:url(#radialGradient3973);fill-opacity:1;fill-rule:nonzero;stroke:none;stroke-width:4.59999943;stroke-linecap:round;stroke-linejoin:round;marker:none;marker-start:none;marker-mid:none;marker-end:none;stroke-miterlimit:4;stroke-dasharray:none;stroke-dashoffset:0;stroke-opacity:1;visibility:visible;display:inline;overflow:visible;enable-background:accumulate"
       id="rect3957"
       width="62"
       height="62"
       x="1"
       y="1"
       rx="6"
       ry="6" />
    <rect
       style="opacity:0.72268909999999986;fill:none;fill-opacity:1;fill-rule:nonzero;stroke:#ffcc00;stroke-width:1;stroke-linecap:round;stroke-linejoin:round;marker:none;marker-start:none;marker-mid:none;marker-end:none;stroke-miterlimit:4;stroke-dasharray:none;stroke-dashoffset:0;stroke-opacity:1;visibility:visible;display:inline;overflow:visible;enable-background:accumulate"
       id="rect3191"
       width="62"
       height="62"
       x="1"
       y="1"
       rx="6"
       ry="6" />
  </g>
</svg>
